<svg width="22" height="22" viewBox="0 0 22 22" fill="none" xmlns="http://www.w3.org/2000/svg">
<path d="M13.5299 8.47L8.46992 13.53C7.81992 12.88 7.41992 11.99 7.41992 11C7.41992 9.02 9.01992 7.42 10.9999 7.42C11.9899 7.42 12.8799 7.82 13.5299 8.47Z" stroke="black" stroke-width="1.5" stroke-linecap="round" stroke-linejoin="round"/>
<path d="M16.8198 4.76998C15.0698 3.44998 13.0698 2.72998 10.9998 2.72998C7.46984 2.72998 4.17984 4.80998 1.88984 8.40998C0.989844 9.81998 0.989844 12.19 1.88984 13.6C2.67984 14.84 3.59984 15.91 4.59984 16.77" stroke="black" stroke-width="1.5" stroke-linecap="round" stroke-linejoin="round"/>
<path d="M7.41992 18.53C8.55992 19.01 9.76992 19.27 10.9999 19.27C14.5299 19.27 17.8199 17.19 20.1099 13.59C21.0099 12.18 21.0099 9.80999 20.1099 8.39999C19.7799 7.87999 19.4199 7.38999 19.0499 6.92999" stroke="black" stroke-width="1.5" stroke-linecap="round" stroke-linejoin="round"/>
<path d="M14.5104 11.7C14.2504 13.11 13.1004 14.26 11.6904 14.52" stroke="black" stroke-width="1.5" stroke-linecap="round" stroke-linejoin="round"/>
<path d="M8.47 13.53L1 21" stroke="black" stroke-width="1.5" stroke-linecap="round" stroke-linejoin="round"/>
<path d="M20.9993 1L13.5293 8.47" stroke="black" stroke-width="1.5" stroke-linecap="round" stroke-linejoin="round"/>
</svg>
