<svg width="26" height="24" viewBox="0 0 26 24" fill="none" xmlns="http://www.w3.org/2000/svg">
<path d="M22 21V19C22 17.9391 21.5786 16.9217 20.8284 16.1716C20.0783 15.4214 19.0609 15 18 15H10C8.93913 15 7.92172 15.4214 7.17157 16.1716C6.42143 16.9217 6 17.9391 6 19V21" stroke="#0F1419" stroke-width="2" stroke-linecap="round" stroke-linejoin="round"/>
<path d="M14 11C16.2091 11 18 9.20914 18 7C18 4.79086 16.2091 3 14 3C11.7909 3 10 4.79086 10 7C10 9.20914 11.7909 11 14 11Z" stroke="#0F1419" stroke-width="2" stroke-linecap="round" stroke-linejoin="round"/>
<path d="M20 21V19C20 17.9391 19.5786 16.9217 18.8284 16.1716C18.0783 15.4214 17.0609 15 16 15H8C6.93913 15 5.92172 15.4214 5.17157 16.1716C4.42143 16.9217 4 17.9391 4 19V21" stroke="#0F1419" stroke-opacity="0.52" stroke-width="2" stroke-linecap="round" stroke-linejoin="round"/>
<path d="M12 11C14.2091 11 16 9.20914 16 7C16 4.79086 14.2091 3 12 3C9.79086 3 8 4.79086 8 7C8 9.20914 9.79086 11 12 11Z" stroke="#0F1419" stroke-opacity="0.52" stroke-width="2" stroke-linecap="round" stroke-linejoin="round"/>
</svg>
